#!OML:ASF E:\Style4\Style4.ASF
:FULLY-SPECIFIED
:DEGREES
1121
root 0.299411 16.5961 0.212119 1.5217 12.5292 4.26834
lowerback 11.1808 4.29842 -0.465033
upperback 6.96554 5.68124 -0.739363
thorax 1.05777 2.86689 -1.07025
lowerneck 9.3614 3.34358 -0.379011
upperneck 1.10863 4.39359 -0.705219
head -1.21261 2.20887 -0.322315
rclavicle -2.78299e-015 -8.74653e-015
rhumerus -30.1021 17.1315 -56.0181
rradius 135.939
rwrist -75.9119
rhand 56.3135 -5.56388
rfingers 7.12502
rthumb 73.4122 14.6382
lclavicle -2.78299e-015 -8.74653e-015
lhumerus -13.1017 -14.0889 54.3503
lradius 139.855
lwrist 73.3917
lhand 37.9367 50.2343
lfingers 7.12502
lthumb 60.6639 63.2982
rfemur -21.7015 -13.2842 13.1875
rtibia 57.9357
rfoot -31.4954 -22.6613
rtoes -14.4857
lfemur -24.7294 -0.780152 -25.1987
ltibia 54.8352
lfoot -29.2348 8.57779
ltoes -17.0874
1122
root 0.294843 16.5965 0.211378 1.55698 12.5977 4.2684
lowerback 11.1352 4.28783 -0.481131
upperback 6.98743 5.66714 -0.735049
thorax 1.10309 2.85948 -1.05071
lowerneck 9.29193 3.23713 -0.450568
upperneck 1.12282 4.24648 -0.670445
head -1.19878 2.13467 -0.2925
rclavicle 6.97734e-014 -8.74653e-015
rhumerus -29.8832 17.1347 -55.9656
rradius 135.899
rwrist -75.9948
rhand 56.4137 -5.77052
rfingers 7.12502
rthumb 73.454 14.7377
lclavicle 6.97734e-014 -8.74653e-015
lhumerus -13.1537 -14.0361 54.3877
lradius 139.87
lwrist 73.4153
lhand 37.9529 50.3499
lfingers 7.12502
lthumb 60.6776 63.3986
rfemur -21.7078 -13.3404 13.2192
rtibia 57.8955
rfoot -31.4701 -22.6557
rtoes -14.3023
lfemur -24.7686 -0.83301 -25.1782
ltibia 54.8211
lfoot -29.1767 8.4653
ltoes -16.9106
1123
root 0.290667 16.5981 0.212428 1.54399 12.6524 4.18707
lowerback 11.1149 4.27764 -0.410935
upperback 7.00593 5.66075 -0.71875
thorax 1.13831 2.85838 -1.06928
lowerneck 9.26365 3.15923 -0.432335
upperneck 1.11882 4.14514 -0.686404
head -1.19472 2.08457 -0.296172
rclavicle 2.96189e-014 -7.95139e-016
rhumerus -29.7776 17.1248 -55.9606
rradius 135.899
rwrist -76.0614
rhand 56.3103 -5.85127
rfingers 7.12502
rthumb 73.4109 14.3411
lclavicle 2.96189e-014 -7.95139e-016
lhumerus -13.1935 -14.0094 54.4162
lradius 139.879
lwrist 73.4245
lhand 37.9589 50.5064
lfingers 7.12502
lthumb 60.6827 63.5495
rfemur -21.6721 -13.3586 13.3315
rtibia 57.8387
rfoot -31.4045 -22.7813
rtoes -14.5029
lfemur -24.7815 -0.847236 -25.062
ltibia 54.8222
lfoot -29.1377 8.33061
ltoes -16.6574
1124
root 0.286974 16.6005 0.211981 1.50742 12.6734 4.05247
lowerback 11.1514 4.2707 -0.275002
upperback 7.00504 5.66318 -0.700485
thorax 1.12893 2.86351 -1.12845
lowerneck 9.22086 3.11927 -0.430969
upperneck 1.15039 4.09375 -0.64334
head -1.17816 2.05797 -0.279894
rclavicle 1.21259e-013 -3.89618e-014
rhumerus -29.7317 17.1717 -56.0344
rradius 135.951
rwrist -75.9169
rhand 56.1616 -5.74237
rfingers 7.12502
rthumb 73.3479 13.9986
lclavicle 1.21259e-013 -3.89618e-014
lhumerus -13.2534 -13.9657 54.4364
lradius 139.87
lwrist 73.4598
lhand 37.9591 50.5876
lfingers 7.12502
lthumb 60.6828 63.6305
rfemur -21.6387 -13.3414 13.5066
rtibia 57.7706
rfoot -31.3301 -23.0161
rtoes -14.9841
lfemur -24.8007 -0.849676 -24.8962
ltibia 54.8419
lfoot -29.1258 8.34683
ltoes -16.7697
1125
root 0.28475 16.6029 0.21066 1.50124 12.6829 4.02677
lowerback 11.1684 4.26204 -0.260391
upperback 7.00505 5.65281 -0.686463
thorax 1.11947 2.85844 -1.12248
lowerneck 9.24765 3.11778 -0.50053
upperneck 1.13505 4.08549 -0.571396
head -1.19076 2.05228 -0.246477
rclavicle -6.50026e-014 3.4191e-014
rhumerus -29.6472 17.2905 -56.0616
rradius 135.99
rwrist -75.6033
rhand 56.2393 -5.50843
rfingers 7.12502
rthumb 73.3809 14.4679
lclavicle -6.50026e-014 3.4191e-014
lhumerus -13.3814 -13.9555 54.4834
lradius 139.87
lwrist 73.4625
lhand 37.893 50.4109
lfingers 7.12502
lthumb 60.6268 63.516
rfemur -21.62 -13.3435 13.5436
rtibia 57.7254
rfoot -31.417 -22.9353
rtoes -14.8926
lfemur -24.8062 -0.862343 -24.859
ltibia 54.8417
lfoot -29.151 8.38786
ltoes -16.8618
